<mxfile host="app.diagrams.net" modified="2023-03-22T15:36:47.251Z" agent="5.0 (Windows NT 10.0; Win64; x64) AppleWebKit/537.36 (KHTML, like Gecko) Chrome/111.0.0.0 Safari/537.36" etag="oG9JnhaNo9KfxWuc7rRH" version="21.0.8" type="github">
  <diagram name="Page-1" id="Pw4Bdl9mz7BvQYq_5TOt">
    <mxGraphModel dx="880" dy="522" grid="1" gridSize="10" guides="1" tooltips="1" connect="1" arrows="1" fold="1" page="1" pageScale="1" pageWidth="850" pageHeight="1100" math="0" shadow="0">
      <root>
        <mxCell id="0" />
        <mxCell id="1" parent="0" />
        <mxCell id="MHC77ChxwbSD-My5Al0Y-69" value="" style="group" vertex="1" connectable="0" parent="1">
          <mxGeometry x="121" y="10" width="600" height="919.9999999999999" as="geometry" />
        </mxCell>
        <mxCell id="MHC77ChxwbSD-My5Al0Y-1" value="&lt;font style=&quot;font-size: 14px;&quot;&gt;Start&lt;/font&gt;" style="ellipse;whiteSpace=wrap;html=1;container=0;" vertex="1" parent="MHC77ChxwbSD-My5Al0Y-69">
          <mxGeometry x="130" width="160" height="60.65934065934066" as="geometry" />
        </mxCell>
        <mxCell id="MHC77ChxwbSD-My5Al0Y-3" value="" style="endArrow=classic;html=1;rounded=0;" edge="1" parent="MHC77ChxwbSD-My5Al0Y-69" source="MHC77ChxwbSD-My5Al0Y-1">
          <mxGeometry width="50" height="50" relative="1" as="geometry">
            <mxPoint x="160" y="129.4065934065934" as="sourcePoint" />
            <mxPoint x="210" y="101.0989010989011" as="targetPoint" />
          </mxGeometry>
        </mxCell>
        <mxCell id="MHC77ChxwbSD-My5Al0Y-9" value="" style="endArrow=none;html=1;rounded=0;" edge="1" parent="MHC77ChxwbSD-My5Al0Y-69">
          <mxGeometry relative="1" as="geometry">
            <mxPoint x="40" y="101.0989010989011" as="sourcePoint" />
            <mxPoint x="400" y="101.0989010989011" as="targetPoint" />
          </mxGeometry>
        </mxCell>
        <mxCell id="MHC77ChxwbSD-My5Al0Y-15" value="" style="endArrow=classic;html=1;rounded=0;" edge="1" parent="MHC77ChxwbSD-My5Al0Y-69">
          <mxGeometry width="50" height="50" relative="1" as="geometry">
            <mxPoint x="40" y="101.0989010989011" as="sourcePoint" />
            <mxPoint x="40" y="141.53846153846155" as="targetPoint" />
          </mxGeometry>
        </mxCell>
        <mxCell id="MHC77ChxwbSD-My5Al0Y-16" value="" style="endArrow=classic;html=1;rounded=0;" edge="1" parent="MHC77ChxwbSD-My5Al0Y-69">
          <mxGeometry width="50" height="50" relative="1" as="geometry">
            <mxPoint x="400" y="101.0989010989011" as="sourcePoint" />
            <mxPoint x="400" y="141.53846153846155" as="targetPoint" />
          </mxGeometry>
        </mxCell>
        <mxCell id="MHC77ChxwbSD-My5Al0Y-17" value="ADMIN" style="text;html=1;align=center;verticalAlign=middle;resizable=0;points=[];autosize=1;strokeColor=none;fillColor=none;container=0;" vertex="1" parent="MHC77ChxwbSD-My5Al0Y-69">
          <mxGeometry x="10" y="146.5934065934066" width="60" height="30" as="geometry" />
        </mxCell>
        <mxCell id="MHC77ChxwbSD-My5Al0Y-18" value="Login" style="rhombus;whiteSpace=wrap;html=1;container=0;" vertex="1" parent="MHC77ChxwbSD-My5Al0Y-69">
          <mxGeometry x="360" y="169.84615384615384" width="80" height="80.87912087912088" as="geometry" />
        </mxCell>
        <mxCell id="MHC77ChxwbSD-My5Al0Y-19" value="Login" style="rhombus;whiteSpace=wrap;html=1;container=0;" vertex="1" parent="MHC77ChxwbSD-My5Al0Y-69">
          <mxGeometry y="169.84615384615384" width="80" height="80.87912087912088" as="geometry" />
        </mxCell>
        <mxCell id="MHC77ChxwbSD-My5Al0Y-20" value="CLIENT" style="text;html=1;align=center;verticalAlign=middle;resizable=0;points=[];autosize=1;strokeColor=none;fillColor=none;container=0;" vertex="1" parent="MHC77ChxwbSD-My5Al0Y-69">
          <mxGeometry x="365" y="139.5164835164835" width="70" height="30" as="geometry" />
        </mxCell>
        <mxCell id="MHC77ChxwbSD-My5Al0Y-22" value="" style="endArrow=classic;html=1;rounded=0;exitX=1;exitY=0.5;exitDx=0;exitDy=0;" edge="1" parent="MHC77ChxwbSD-My5Al0Y-69" source="MHC77ChxwbSD-My5Al0Y-19">
          <mxGeometry width="50" height="50" relative="1" as="geometry">
            <mxPoint x="80" y="210.28571428571428" as="sourcePoint" />
            <mxPoint x="50" y="141.53846153846155" as="targetPoint" />
            <Array as="points">
              <mxPoint x="120" y="210.28571428571428" />
              <mxPoint x="120" y="161.75824175824175" />
              <mxPoint x="120" y="141.53846153846155" />
              <mxPoint x="80" y="141.53846153846155" />
            </Array>
          </mxGeometry>
        </mxCell>
        <mxCell id="MHC77ChxwbSD-My5Al0Y-25" value="" style="endArrow=classic;html=1;rounded=0;exitX=1;exitY=0.5;exitDx=0;exitDy=0;entryX=0.643;entryY=0.067;entryDx=0;entryDy=0;entryPerimeter=0;" edge="1" parent="MHC77ChxwbSD-My5Al0Y-69" target="MHC77ChxwbSD-My5Al0Y-20">
          <mxGeometry width="50" height="50" relative="1" as="geometry">
            <mxPoint x="440" y="210.28571428571428" as="sourcePoint" />
            <mxPoint x="413.02" y="137.48439560439562" as="targetPoint" />
            <Array as="points">
              <mxPoint x="480" y="210.28571428571428" />
              <mxPoint x="480" y="141.53846153846155" />
              <mxPoint x="440" y="141.53846153846155" />
            </Array>
          </mxGeometry>
        </mxCell>
        <mxCell id="MHC77ChxwbSD-My5Al0Y-26" value="" style="endArrow=none;html=1;rounded=0;" edge="1" parent="MHC77ChxwbSD-My5Al0Y-69">
          <mxGeometry width="50" height="50" relative="1" as="geometry">
            <mxPoint x="40" y="251.7362637362637" as="sourcePoint" />
            <mxPoint x="40" y="788.5714285714286" as="targetPoint" />
          </mxGeometry>
        </mxCell>
        <mxCell id="MHC77ChxwbSD-My5Al0Y-27" value="" style="endArrow=none;html=1;rounded=0;" edge="1" parent="MHC77ChxwbSD-My5Al0Y-69">
          <mxGeometry width="50" height="50" relative="1" as="geometry">
            <mxPoint x="400" y="251.7362637362637" as="sourcePoint" />
            <mxPoint x="400" y="788.5714285714286" as="targetPoint" />
          </mxGeometry>
        </mxCell>
        <mxCell id="MHC77ChxwbSD-My5Al0Y-28" value="Yes" style="text;html=1;align=center;verticalAlign=middle;resizable=0;points=[];autosize=1;strokeColor=none;fillColor=none;container=0;" vertex="1" parent="MHC77ChxwbSD-My5Al0Y-69">
          <mxGeometry x="430" y="252.74725274725273" width="40" height="30" as="geometry" />
        </mxCell>
        <mxCell id="MHC77ChxwbSD-My5Al0Y-29" value="Yes" style="text;html=1;align=center;verticalAlign=middle;resizable=0;points=[];autosize=1;strokeColor=none;fillColor=none;container=0;" vertex="1" parent="MHC77ChxwbSD-My5Al0Y-69">
          <mxGeometry x="50" y="252.74725274725273" width="40" height="30" as="geometry" />
        </mxCell>
        <mxCell id="MHC77ChxwbSD-My5Al0Y-30" value="My Account" style="rounded=1;whiteSpace=wrap;html=1;container=0;" vertex="1" parent="MHC77ChxwbSD-My5Al0Y-69">
          <mxGeometry x="90" y="303.2967032967033" width="140" height="30.32967032967033" as="geometry" />
        </mxCell>
        <mxCell id="MHC77ChxwbSD-My5Al0Y-31" value="" style="endArrow=none;html=1;rounded=0;entryX=0;entryY=0.5;entryDx=0;entryDy=0;" edge="1" parent="MHC77ChxwbSD-My5Al0Y-69" target="MHC77ChxwbSD-My5Al0Y-30">
          <mxGeometry width="50" height="50" relative="1" as="geometry">
            <mxPoint x="40" y="318.46153846153845" as="sourcePoint" />
            <mxPoint x="210" y="252.74725274725273" as="targetPoint" />
          </mxGeometry>
        </mxCell>
        <mxCell id="MHC77ChxwbSD-My5Al0Y-33" value="Add Buses" style="rounded=1;whiteSpace=wrap;html=1;container=0;" vertex="1" parent="MHC77ChxwbSD-My5Al0Y-69">
          <mxGeometry x="90" y="353.8461538461538" width="140" height="30.32967032967033" as="geometry" />
        </mxCell>
        <mxCell id="MHC77ChxwbSD-My5Al0Y-34" value="" style="endArrow=none;html=1;rounded=0;entryX=0;entryY=0.5;entryDx=0;entryDy=0;" edge="1" parent="MHC77ChxwbSD-My5Al0Y-69" target="MHC77ChxwbSD-My5Al0Y-30">
          <mxGeometry width="50" height="50" relative="1" as="geometry">
            <mxPoint x="40" y="318.46153846153845" as="sourcePoint" />
            <mxPoint x="90" y="318.46153846153845" as="targetPoint" />
            <Array as="points">
              <mxPoint x="70" y="318.46153846153845" />
            </Array>
          </mxGeometry>
        </mxCell>
        <mxCell id="MHC77ChxwbSD-My5Al0Y-35" value="" style="endArrow=none;html=1;rounded=0;entryX=0;entryY=0.75;entryDx=0;entryDy=0;" edge="1" parent="MHC77ChxwbSD-My5Al0Y-69">
          <mxGeometry width="50" height="50" relative="1" as="geometry">
            <mxPoint x="40" y="370.021978021978" as="sourcePoint" />
            <mxPoint x="90" y="369.5164835164835" as="targetPoint" />
          </mxGeometry>
        </mxCell>
        <mxCell id="MHC77ChxwbSD-My5Al0Y-36" value="Generate Price" style="rounded=1;whiteSpace=wrap;html=1;container=0;" vertex="1" parent="MHC77ChxwbSD-My5Al0Y-69">
          <mxGeometry x="90" y="414.5054945054945" width="140" height="30.32967032967033" as="geometry" />
        </mxCell>
        <mxCell id="MHC77ChxwbSD-My5Al0Y-37" value="" style="endArrow=none;html=1;rounded=0;entryX=0;entryY=0.5;entryDx=0;entryDy=0;" edge="1" parent="MHC77ChxwbSD-My5Al0Y-69" target="MHC77ChxwbSD-My5Al0Y-36">
          <mxGeometry width="50" height="50" relative="1" as="geometry">
            <mxPoint x="40" y="429.67032967032964" as="sourcePoint" />
            <mxPoint x="90" y="434.7252747252747" as="targetPoint" />
          </mxGeometry>
        </mxCell>
        <mxCell id="MHC77ChxwbSD-My5Al0Y-38" value="Add new route" style="rounded=1;whiteSpace=wrap;html=1;container=0;" vertex="1" parent="MHC77ChxwbSD-My5Al0Y-69">
          <mxGeometry x="90" y="475.16483516483515" width="140" height="30.32967032967033" as="geometry" />
        </mxCell>
        <mxCell id="MHC77ChxwbSD-My5Al0Y-39" value="" style="endArrow=none;html=1;rounded=0;exitX=0;exitY=0.5;exitDx=0;exitDy=0;" edge="1" parent="MHC77ChxwbSD-My5Al0Y-69" source="MHC77ChxwbSD-My5Al0Y-38">
          <mxGeometry width="50" height="50" relative="1" as="geometry">
            <mxPoint x="160" y="475.16483516483515" as="sourcePoint" />
            <mxPoint x="40" y="490.3296703296703" as="targetPoint" />
          </mxGeometry>
        </mxCell>
        <mxCell id="MHC77ChxwbSD-My5Al0Y-40" value="Manage Site and Change password" style="rounded=1;whiteSpace=wrap;html=1;container=0;" vertex="1" parent="MHC77ChxwbSD-My5Al0Y-69">
          <mxGeometry x="90" y="535.8241758241758" width="140" height="30.32967032967033" as="geometry" />
        </mxCell>
        <mxCell id="MHC77ChxwbSD-My5Al0Y-41" value="" style="endArrow=none;html=1;rounded=0;exitX=0;exitY=0.5;exitDx=0;exitDy=0;" edge="1" parent="MHC77ChxwbSD-My5Al0Y-69" source="MHC77ChxwbSD-My5Al0Y-40">
          <mxGeometry width="50" height="50" relative="1" as="geometry">
            <mxPoint x="160" y="475.16483516483515" as="sourcePoint" />
            <mxPoint x="40" y="550.9890109890109" as="targetPoint" />
          </mxGeometry>
        </mxCell>
        <mxCell id="MHC77ChxwbSD-My5Al0Y-42" value="See all the booking data" style="rounded=1;whiteSpace=wrap;html=1;container=0;" vertex="1" parent="MHC77ChxwbSD-My5Al0Y-69">
          <mxGeometry x="90" y="596.4835164835165" width="140" height="30.32967032967033" as="geometry" />
        </mxCell>
        <mxCell id="MHC77ChxwbSD-My5Al0Y-43" value="" style="endArrow=none;html=1;rounded=0;exitX=0;exitY=0.5;exitDx=0;exitDy=0;" edge="1" parent="MHC77ChxwbSD-My5Al0Y-69" source="MHC77ChxwbSD-My5Al0Y-42">
          <mxGeometry width="50" height="50" relative="1" as="geometry">
            <mxPoint x="160" y="636.9230769230769" as="sourcePoint" />
            <mxPoint x="40" y="611.6483516483516" as="targetPoint" />
          </mxGeometry>
        </mxCell>
        <mxCell id="MHC77ChxwbSD-My5Al0Y-44" value="Manage bus seat and bus" style="rounded=1;whiteSpace=wrap;html=1;container=0;" vertex="1" parent="MHC77ChxwbSD-My5Al0Y-69">
          <mxGeometry x="90" y="657.1428571428571" width="140" height="30.32967032967033" as="geometry" />
        </mxCell>
        <mxCell id="MHC77ChxwbSD-My5Al0Y-45" value="" style="endArrow=none;html=1;rounded=0;exitX=0;exitY=0.5;exitDx=0;exitDy=0;" edge="1" parent="MHC77ChxwbSD-My5Al0Y-69" source="MHC77ChxwbSD-My5Al0Y-44">
          <mxGeometry width="50" height="50" relative="1" as="geometry">
            <mxPoint x="160" y="636.9230769230769" as="sourcePoint" />
            <mxPoint x="40" y="672.3076923076923" as="targetPoint" />
          </mxGeometry>
        </mxCell>
        <mxCell id="MHC77ChxwbSD-My5Al0Y-47" value="Visite Site" style="rounded=1;whiteSpace=wrap;html=1;container=0;" vertex="1" parent="MHC77ChxwbSD-My5Al0Y-69">
          <mxGeometry x="460" y="303.2967032967033" width="140" height="30.32967032967033" as="geometry" />
        </mxCell>
        <mxCell id="MHC77ChxwbSD-My5Al0Y-48" value="Register" style="rounded=1;whiteSpace=wrap;html=1;container=0;" vertex="1" parent="MHC77ChxwbSD-My5Al0Y-69">
          <mxGeometry x="460" y="353.8461538461538" width="140" height="30.32967032967033" as="geometry" />
        </mxCell>
        <mxCell id="MHC77ChxwbSD-My5Al0Y-49" value="My Account" style="rounded=1;whiteSpace=wrap;html=1;container=0;" vertex="1" parent="MHC77ChxwbSD-My5Al0Y-69">
          <mxGeometry x="460" y="414.5054945054945" width="140" height="30.32967032967033" as="geometry" />
        </mxCell>
        <mxCell id="MHC77ChxwbSD-My5Al0Y-50" value="Change Password" style="rounded=1;whiteSpace=wrap;html=1;container=0;" vertex="1" parent="MHC77ChxwbSD-My5Al0Y-69">
          <mxGeometry x="460" y="475.16483516483515" width="140" height="30.32967032967033" as="geometry" />
        </mxCell>
        <mxCell id="MHC77ChxwbSD-My5Al0Y-51" value="Book Ticket" style="rounded=1;whiteSpace=wrap;html=1;container=0;" vertex="1" parent="MHC77ChxwbSD-My5Al0Y-69">
          <mxGeometry x="460" y="535.8241758241758" width="140" height="30.32967032967033" as="geometry" />
        </mxCell>
        <mxCell id="MHC77ChxwbSD-My5Al0Y-52" value="" style="endArrow=none;html=1;rounded=0;entryX=0;entryY=0.5;entryDx=0;entryDy=0;" edge="1" parent="MHC77ChxwbSD-My5Al0Y-69" target="MHC77ChxwbSD-My5Al0Y-47">
          <mxGeometry width="50" height="50" relative="1" as="geometry">
            <mxPoint x="400" y="318.46153846153845" as="sourcePoint" />
            <mxPoint x="210" y="414.5054945054945" as="targetPoint" />
          </mxGeometry>
        </mxCell>
        <mxCell id="MHC77ChxwbSD-My5Al0Y-54" value="" style="endArrow=none;html=1;rounded=0;entryX=0;entryY=0.5;entryDx=0;entryDy=0;" edge="1" parent="MHC77ChxwbSD-My5Al0Y-69" target="MHC77ChxwbSD-My5Al0Y-48">
          <mxGeometry width="50" height="50" relative="1" as="geometry">
            <mxPoint x="400" y="369.010989010989" as="sourcePoint" />
            <mxPoint x="210" y="414.5054945054945" as="targetPoint" />
          </mxGeometry>
        </mxCell>
        <mxCell id="MHC77ChxwbSD-My5Al0Y-55" value="" style="endArrow=none;html=1;rounded=0;entryX=0;entryY=0.5;entryDx=0;entryDy=0;" edge="1" parent="MHC77ChxwbSD-My5Al0Y-69" target="MHC77ChxwbSD-My5Al0Y-49">
          <mxGeometry width="50" height="50" relative="1" as="geometry">
            <mxPoint x="400" y="429.67032967032964" as="sourcePoint" />
            <mxPoint x="210" y="414.5054945054945" as="targetPoint" />
          </mxGeometry>
        </mxCell>
        <mxCell id="MHC77ChxwbSD-My5Al0Y-56" value="" style="endArrow=none;html=1;rounded=0;entryX=0;entryY=0.5;entryDx=0;entryDy=0;" edge="1" parent="MHC77ChxwbSD-My5Al0Y-69" target="MHC77ChxwbSD-My5Al0Y-50">
          <mxGeometry width="50" height="50" relative="1" as="geometry">
            <mxPoint x="400" y="490.3296703296703" as="sourcePoint" />
            <mxPoint x="210" y="414.5054945054945" as="targetPoint" />
          </mxGeometry>
        </mxCell>
        <mxCell id="MHC77ChxwbSD-My5Al0Y-57" value="" style="endArrow=none;html=1;rounded=0;entryX=0;entryY=0.5;entryDx=0;entryDy=0;" edge="1" parent="MHC77ChxwbSD-My5Al0Y-69" target="MHC77ChxwbSD-My5Al0Y-51">
          <mxGeometry width="50" height="50" relative="1" as="geometry">
            <mxPoint x="400" y="550.9890109890109" as="sourcePoint" />
            <mxPoint x="210" y="414.5054945054945" as="targetPoint" />
          </mxGeometry>
        </mxCell>
        <mxCell id="MHC77ChxwbSD-My5Al0Y-58" value="View Receipt" style="rounded=1;whiteSpace=wrap;html=1;container=0;" vertex="1" parent="MHC77ChxwbSD-My5Al0Y-69">
          <mxGeometry x="460" y="596.4835164835165" width="140" height="30.32967032967033" as="geometry" />
        </mxCell>
        <mxCell id="MHC77ChxwbSD-My5Al0Y-59" value="" style="endArrow=none;html=1;rounded=0;entryX=0;entryY=0.5;entryDx=0;entryDy=0;" edge="1" parent="MHC77ChxwbSD-My5Al0Y-69" target="MHC77ChxwbSD-My5Al0Y-58">
          <mxGeometry width="50" height="50" relative="1" as="geometry">
            <mxPoint x="400" y="611.6483516483516" as="sourcePoint" />
            <mxPoint x="210" y="586.3736263736264" as="targetPoint" />
          </mxGeometry>
        </mxCell>
        <mxCell id="MHC77ChxwbSD-My5Al0Y-61" value="Logout" style="rounded=1;whiteSpace=wrap;html=1;container=0;" vertex="1" parent="MHC77ChxwbSD-My5Al0Y-69">
          <mxGeometry x="149" y="765.3186813186813" width="120" height="40.43956043956044" as="geometry" />
        </mxCell>
        <mxCell id="MHC77ChxwbSD-My5Al0Y-62" value="" style="endArrow=none;html=1;rounded=0;entryX=0;entryY=0.5;entryDx=0;entryDy=0;" edge="1" parent="MHC77ChxwbSD-My5Al0Y-69" target="MHC77ChxwbSD-My5Al0Y-61">
          <mxGeometry width="50" height="50" relative="1" as="geometry">
            <mxPoint x="40" y="788.5714285714286" as="sourcePoint" />
            <mxPoint x="210" y="920" as="targetPoint" />
          </mxGeometry>
        </mxCell>
        <mxCell id="MHC77ChxwbSD-My5Al0Y-63" value="" style="endArrow=none;html=1;rounded=0;" edge="1" parent="MHC77ChxwbSD-My5Al0Y-69">
          <mxGeometry width="50" height="50" relative="1" as="geometry">
            <mxPoint x="270" y="788.5714285714286" as="sourcePoint" />
            <mxPoint x="400" y="788.5714285714286" as="targetPoint" />
          </mxGeometry>
        </mxCell>
        <mxCell id="MHC77ChxwbSD-My5Al0Y-64" value="" style="endArrow=classic;html=1;rounded=0;exitX=0.5;exitY=1;exitDx=0;exitDy=0;" edge="1" parent="MHC77ChxwbSD-My5Al0Y-69" source="MHC77ChxwbSD-My5Al0Y-61">
          <mxGeometry width="50" height="50" relative="1" as="geometry">
            <mxPoint x="160" y="970.5494505494505" as="sourcePoint" />
            <mxPoint x="210" y="869.4505494505494" as="targetPoint" />
          </mxGeometry>
        </mxCell>
        <mxCell id="MHC77ChxwbSD-My5Al0Y-65" value="End" style="ellipse;whiteSpace=wrap;html=1;container=0;" vertex="1" parent="MHC77ChxwbSD-My5Al0Y-69">
          <mxGeometry x="150" y="869.4505494505494" width="120" height="50.54945054945055" as="geometry" />
        </mxCell>
      </root>
    </mxGraphModel>
  </diagram>
</mxfile>
